<svg width="160" height="59" viewBox="0 0 160 59" fill="none" xmlns="http://www.w3.org/2000/svg">
    <g clip-path="url(#clip0)">
        <path d="M26.5717 0.14937C29.5336 -0.145515 32.5404 -0.00474555 35.4585 0.58026C40.0244 1.48811 44.3584 3.5002 47.9954 6.38233C50.6719 8.49674 52.9751 11.0738 54.7691 13.9636C56.2879 16.4072 57.4426 19.0735 58.1767 21.8505C57.451 21.0288 56.5025 20.4132 55.473 20.0332C54.6252 19.7234 53.7252 19.5747 52.8254 19.5238C51.8606 19.472 50.8885 19.5159 49.9362 19.6814C48.138 19.9881 46.4347 20.8016 45.0543 21.982C43.6535 23.1883 42.6086 24.7638 41.9165 26.4632C41.555 27.3389 41.2814 28.2496 41.0927 29.1772C40.8668 30.2929 40.7486 31.4349 40.8043 32.5735C40.852 33.5071 41.01 34.4413 41.3388 35.3199C41.7409 36.4013 42.4061 37.4029 43.3302 38.1134C44.2661 38.8452 45.4039 39.2974 46.5757 39.4903C47.4209 39.6342 48.2825 39.6701 49.139 39.6374C50.3864 39.5888 51.6338 39.3635 52.7953 38.9018C53.8187 38.4966 54.7819 37.9354 55.6217 37.2259C57.2062 35.89 58.3507 34.0835 59.0024 32.133C59.0028 32.3882 58.9566 32.6415 58.9316 32.8954C58.6227 35.4314 57.9768 37.9269 57.0136 40.2958C55.2811 44.57 52.5088 48.4223 49.007 51.4474C45.518 54.4726 41.3019 56.6696 36.8048 57.784C31.2642 59.1666 25.3185 58.9232 19.9185 57.0671C17.3084 56.1742 14.8274 54.9123 12.5704 53.3353C10.38 51.8062 8.3998 49.9816 6.70159 47.9272C7.61222 47.6244 8.46549 47.0991 9.07108 46.3514C9.29665 46.0699 9.48314 45.7547 9.60201 45.414C9.66834 45.2409 9.68756 45.0559 9.72121 44.8751C10.0352 43.0712 10.3499 41.2675 10.6636 39.4636C12.075 39.7013 13.5223 39.7009 14.9408 39.5198C17.1831 39.2291 19.3661 38.3466 21.0989 36.8925C22.5876 35.6507 23.7123 34.0085 24.4223 32.2179C24.9065 31.0078 25.2 29.7301 25.3698 28.4416C25.5524 27.0622 25.597 25.6452 25.2935 24.2789C25.0715 23.2458 24.6456 22.2372 23.9426 21.4339C23.3063 20.6872 22.4469 20.1422 21.5103 19.8451C20.8013 19.6137 20.0537 19.5082 19.3084 19.5038C18.6628 19.4981 18.0139 19.5728 17.3933 19.7513C16.2987 20.0685 15.2587 20.6039 14.4137 21.3691C13.9703 21.779 13.5649 22.2296 13.2035 22.7123C13.2122 22.3357 13.2375 21.9592 13.2247 21.5826C13.2128 21.2439 13.192 20.9055 13.1651 20.568C13.1462 20.3586 13.1256 20.1447 13.0446 19.9487C12.2711 19.7872 11.4793 19.71 10.6889 19.73C10.0352 19.7339 9.37964 19.779 8.73913 19.9124C7.295 28.1912 5.85633 36.4709 4.41348 44.7496C3.16449 42.7489 2.1587 40.5983 1.42879 38.359C-0.337352 32.9618 -0.46648 27.0542 1.04333 21.5823C2.21926 17.2972 4.40483 13.2921 7.36549 9.96132C10.4184 6.51516 14.2952 3.78969 18.592 2.08901C21.1425 1.07534 23.8379 0.422013 26.5717 0.14937ZM29.9101 19.7291C28.7963 26.1584 27.6729 32.5862 26.5572 39.0152C26.8193 39.0568 27.0811 39.1004 27.3452 39.1299C27.7931 39.182 28.2465 39.1671 28.6944 39.1229C29.3391 39.0552 29.9799 38.9062 30.5708 38.6367C30.9979 38.44 31.4007 38.1776 31.7169 37.8287C32.0037 37.515 32.2107 37.1258 32.285 36.7076C32.6708 34.4934 33.056 32.2792 33.4411 30.065C33.6026 29.1044 33.8169 28.1429 34.2188 27.25C34.443 26.7577 34.7385 26.2982 35.0804 25.8782C35.6648 25.1578 36.4835 24.6138 37.3931 24.3971C38.0099 24.276 38.6402 24.2191 39.2692 24.2309C39.7037 24.2264 40.1404 24.2258 40.5704 24.2995C40.9148 23.4139 41.1353 22.487 41.3054 21.5547C41.4125 20.9258 41.5009 20.2899 41.4881 19.6506C41.2683 19.5839 41.0382 19.5616 40.8104 19.5413C40.4371 19.5133 40.0622 19.4943 39.6883 19.5079C38.6988 19.5391 37.7091 19.8117 36.8766 20.35C35.9583 20.9512 35.1162 21.6681 34.3867 22.4857C34.4059 21.8346 34.4347 21.1826 34.3879 20.5321C34.3668 20.2725 34.3591 20.0033 34.2546 19.7609C33.6369 19.6328 33.0124 19.5219 32.3802 19.507C31.5516 19.4835 30.7217 19.5645 29.9101 19.7291Z" fill="#005EB8"/>
        <path d="M104.398 11.9766C106.148 11.6887 107.948 11.6693 109.697 11.9762C108.65 17.9956 107.602 24.0151 106.554 30.0345C106.423 30.8282 106.261 31.6172 106.161 32.4161C106.098 32.9817 106.051 33.5639 106.184 34.1238C106.254 34.4202 106.411 34.7069 106.668 34.8835C106.936 35.0685 107.268 35.1244 107.586 35.1581C108.205 35.2112 108.832 35.1571 109.44 35.0304C109.542 36.0774 109.498 37.1381 109.305 38.1724C109.254 38.4864 109.206 38.806 109.068 39.0968C108.324 39.3097 107.548 39.3691 106.779 39.4101C105.581 39.4749 104.34 39.4079 103.221 38.9382C102.309 38.5537 101.481 37.8839 101.06 36.9782C100.785 36.3964 100.661 35.7552 100.622 35.1171C100.576 34.3306 100.648 33.5419 100.779 32.7663C101.985 25.8365 103.191 18.9064 104.398 11.9766Z" fill="#005EB8"/>
        <path d="M76.8517 11.9769C77.6675 11.8389 78.4961 11.8011 79.3225 11.7916C80.2674 11.7906 81.2181 11.8132 82.1511 11.9765C80.6096 20.8422 79.0674 29.7078 77.5249 38.5731C76.2532 38.929 74.959 39.2073 73.6514 39.3955C72.0909 39.6093 70.5122 39.6659 68.9386 39.6471C67.6153 39.609 66.2868 39.3907 65.0497 38.914C63.9862 38.4968 63.0154 37.8273 62.2918 36.9452C61.5097 35.9801 61.0541 34.7822 60.8749 33.5642C60.6833 32.1546 60.8317 30.7211 61.1124 29.3334C61.3655 28.1301 61.791 26.9623 62.3761 25.8784C63.2948 24.1479 64.6328 22.6312 66.2731 21.54C67.2177 20.9111 68.251 20.4094 69.3369 20.0703C70.625 19.6686 71.9861 19.5279 73.3329 19.5854C74.0551 19.6108 74.7831 19.6661 75.4797 19.8704C75.9379 17.2393 76.3942 14.6079 76.8517 11.9769ZM71.1579 23.784C70.5359 23.9302 69.9563 24.219 69.435 24.5816C68.5205 25.2174 67.821 26.1234 67.3487 27.1205C66.8511 28.1781 66.5445 29.3198 66.4092 30.4777C66.3269 31.1968 66.3134 31.9331 66.4778 32.6423C66.597 33.1714 66.8114 33.6913 67.1718 34.105C67.531 34.5229 68.0136 34.8279 68.5371 35.002C69.303 35.2597 70.1216 35.3189 70.9252 35.2845C71.5754 35.2706 72.222 35.173 72.8471 34.9944C73.4889 31.3084 74.1294 27.6223 74.7706 23.9362C74.2874 23.8113 73.7978 23.6982 73.2979 23.6658C72.5841 23.6216 71.8564 23.6086 71.1579 23.784Z" fill="#005EB8"/>
        <path d="M88.8016 19.6827C90.3415 19.4818 91.9138 19.4097 93.4537 19.6518C94.579 19.8314 95.6986 20.2016 96.6156 20.8895C97.078 21.2349 97.4878 21.6566 97.7835 22.1527C98.3564 23.1037 98.532 24.2356 98.5195 25.3287C98.5141 26.0446 98.4279 26.7577 98.3016 27.4616C97.6608 31.1406 97.0197 34.8194 96.3791 38.4985C95.6784 38.7054 94.968 38.8782 94.2544 39.0352C93.5537 39.1855 92.8516 39.3339 92.1413 39.4318C90.709 39.6278 89.2588 39.6885 87.8147 39.6323C87.0332 39.5964 86.2526 39.5138 85.4859 39.36C84.4041 39.148 83.3285 38.7413 82.4996 38.0012C81.7389 37.3291 81.264 36.3679 81.1391 35.3698C81.0349 34.555 81.1166 33.7282 81.2746 32.9255C81.4774 31.9135 81.8895 30.9293 82.5566 30.1302C83.2237 29.3087 84.0651 28.6278 85.012 28.1467C85.9809 27.6449 87.0328 27.3093 88.1088 27.1231C88.8785 26.9833 89.6587 26.8994 90.4411 26.8791C91.3604 26.861 92.2797 26.9071 93.1955 26.9862C93.273 26.555 93.3624 26.1206 93.3371 25.6802C93.3204 25.1479 93.0791 24.615 92.6504 24.2861C92.2704 23.9963 91.7978 23.8571 91.33 23.7872C89.8778 23.5797 88.3911 23.6662 86.9608 23.9798C86.5144 24.0751 86.0726 24.1905 85.6355 24.3201C85.4846 24.3579 85.3359 24.425 85.1863 24.4488C84.9642 23.8622 84.8002 23.2521 84.7146 22.6309C84.6291 21.9477 84.6931 21.255 84.8088 20.5788C86.11 20.1657 87.4459 19.8562 88.8016 19.6827ZM88.0463 30.6758C87.601 30.8683 87.1825 31.1435 86.879 31.5248C86.4686 32.0266 86.2751 32.6697 86.2196 33.3056C86.1908 33.6593 86.2103 34.0323 86.3757 34.3539C86.5009 34.5855 86.6727 34.7937 86.8813 34.957C87.276 35.2589 87.7714 35.3993 88.2578 35.4724C88.7586 35.5303 89.2633 35.5576 89.7676 35.5503C90.4363 35.5388 91.0922 35.3984 91.7504 35.2932C92.0368 33.6551 92.3194 32.0167 92.6046 30.3786C91.7834 30.2455 90.949 30.1495 90.1166 30.2115C89.4084 30.2579 88.6981 30.3894 88.0463 30.6758Z" fill="#005EB8"/>
        <path d="M118.952 19.6792C120.432 19.4872 121.94 19.4167 123.423 19.628C124.526 19.7878 125.627 20.1224 126.552 20.7551C127.032 21.0853 127.468 21.4879 127.793 21.9722C128.391 22.8549 128.614 23.9334 128.642 24.9827C128.663 25.752 128.585 26.521 128.456 27.2788C127.805 31.0186 127.154 34.7587 126.503 38.4988C125.35 38.8363 124.175 39.093 122.995 39.3154C121.505 39.5808 119.987 39.6704 118.475 39.6494C117.725 39.6354 116.975 39.5814 116.233 39.4692C115.069 39.2983 113.891 38.9681 112.938 38.2586C112.194 37.7155 111.65 36.9189 111.4 36.038C111.178 35.2585 111.183 34.4339 111.282 33.6354C111.422 32.4886 111.779 31.3443 112.468 30.4015C113.086 29.5674 113.877 28.8591 114.781 28.3402C115.69 27.8209 116.683 27.4501 117.708 27.2274C118.464 27.064 119.232 26.9541 120.005 26.9042C121.11 26.8365 122.218 26.8946 123.321 26.9855C123.398 26.5556 123.487 26.1218 123.462 25.6827C123.444 25.1552 123.21 24.6268 122.788 24.2963C122.399 23.9931 121.908 23.8533 121.426 23.7834C120.051 23.5912 118.646 23.6595 117.288 23.9378C116.619 24.0716 115.96 24.2505 115.31 24.4583C115.088 23.8565 114.918 23.2337 114.835 22.5975C114.755 21.9248 114.82 21.2442 114.934 20.5794C116.243 20.1622 117.588 19.853 118.952 19.6792ZM118.099 30.7081C117.658 30.9048 117.253 31.194 116.961 31.5795C116.572 32.0822 116.392 32.7139 116.341 33.338C116.317 33.6862 116.339 34.0536 116.506 34.3682C116.63 34.5931 116.8 34.7946 117.003 34.9544C117.402 35.262 117.905 35.4034 118.399 35.4749C118.902 35.5309 119.408 35.5585 119.915 35.5496C120.576 35.534 121.226 35.3996 121.876 35.2906C122.159 33.6529 122.446 32.0161 122.73 30.3789C121.888 30.2414 121.032 30.1457 120.178 30.2159C119.465 30.2677 118.75 30.4085 118.099 30.7081Z" fill="#005EB8"/>
        <path d="M141.899 19.622C142.602 19.4825 143.324 19.4777 144.037 19.5289C145.013 19.6045 146.011 19.8269 146.834 20.3767C147.23 20.6401 147.575 20.9814 147.836 21.378C148.146 21.8428 148.34 22.3754 148.45 22.9204C149.018 22.1317 149.719 21.4415 150.502 20.8629C150.917 20.5534 151.355 20.268 151.833 20.0592C152.764 19.6407 153.796 19.4796 154.814 19.5003C155.824 19.5181 156.859 19.6557 157.774 20.1044C158.261 20.343 158.702 20.6805 159.041 21.104C159.392 21.5416 159.626 22.0627 159.773 22.601C160.034 23.5817 160.036 24.61 159.947 25.6141C159.855 26.6103 159.644 27.59 159.483 28.576C158.867 32.1194 158.251 35.6628 157.635 39.2059C155.871 39.4957 154.058 39.5132 152.296 39.2056C152.923 35.6069 153.55 32.0082 154.177 28.4098C154.273 27.8639 154.347 27.3132 154.368 26.7593C154.383 26.2452 154.364 25.7221 154.218 25.2255C154.126 24.9191 153.932 24.6405 153.659 24.4682C153.299 24.2366 152.861 24.1689 152.441 24.1597C151.942 24.1517 151.443 24.2299 150.968 24.3793C150.478 24.541 150.037 24.8314 149.665 25.1835C149.302 25.5356 149.019 25.9598 148.782 26.4031C148.306 27.2992 148.105 28.3052 147.942 29.296C147.367 32.5995 146.793 35.9027 146.218 39.2059C144.455 39.4957 142.643 39.5125 140.881 39.2062C141.52 35.5227 142.165 31.8398 142.803 28.1559C142.942 27.248 143.045 26.3097 142.849 25.4025C142.774 25.0262 142.567 24.6659 142.233 24.4616C141.761 24.1683 141.179 24.1371 140.638 24.1702C140.072 24.2197 139.495 24.3303 138.998 24.6154C138.522 24.8858 138.116 25.2703 137.804 25.717C137.267 26.474 136.94 27.3554 136.733 28.2528C136.572 28.9366 136.474 29.6326 136.348 30.3231C135.832 33.284 135.317 36.2446 134.801 39.2056C133.039 39.4963 131.227 39.5122 129.465 39.2065C130.582 32.7861 131.7 26.3662 132.818 19.9461C133.497 19.8066 134.188 19.731 134.882 19.7256C135.653 19.7065 136.426 19.7764 137.179 19.9461C137.265 20.1666 137.285 20.4053 137.302 20.6395C137.35 21.2992 137.33 21.9611 137.309 22.6217C137.918 21.792 138.683 21.0704 139.57 20.54C140.289 20.1123 141.077 19.7901 141.899 19.622Z" fill="#005EB8"/>
        <path d="M50.8439 23.6598C51.5799 23.595 52.3579 23.6407 53.0269 23.9798C53.4752 24.2054 53.8366 24.5864 54.051 25.036C54.3131 25.5848 54.423 26.1921 54.4653 26.7939C54.5172 27.5998 54.4502 28.4088 54.3317 29.2064C54.168 30.2763 53.927 31.3411 53.5265 32.3503C53.2823 32.9604 52.9763 33.5505 52.5752 34.0745C52.2778 34.466 51.9122 34.8092 51.4893 35.064C50.9551 35.3894 50.337 35.5645 49.7148 35.6141C49.056 35.6617 48.3687 35.6214 47.7599 35.3468C47.3088 35.1473 46.9294 34.7977 46.6932 34.3678C46.4273 33.8848 46.3017 33.3392 46.2366 32.7965C46.1437 31.9617 46.1969 31.1177 46.3078 30.2871C46.4318 29.3932 46.6128 28.5051 46.8852 27.6436C47.1425 26.8368 47.484 26.0484 47.9759 25.3535C48.2582 24.9522 48.602 24.5896 49.0095 24.3109C49.5488 23.9369 50.1912 23.7234 50.8439 23.6598Z" fill="#005EB8"/>
        <path d="M15.1344 24.4027C15.7269 24.1056 16.4046 24.015 17.0621 24.05C17.5863 24.0776 18.1223 24.2092 18.5472 24.527C19.0454 24.8813 19.3812 25.4231 19.5546 26.0001C19.7843 26.7599 19.7564 27.5658 19.6943 28.3478C19.5818 29.4803 19.3508 30.6084 18.9391 31.6732C18.5366 32.7082 17.9144 33.6872 17.0153 34.3659C16.1572 35.0304 15.0719 35.365 13.9909 35.4015C13.1267 35.427 12.25 35.3599 11.4192 35.1098C11.8059 32.8874 12.193 30.6649 12.5817 28.4431C12.7826 27.4027 13.1254 26.3586 13.7864 25.5114C14.144 25.0478 14.6048 24.6601 15.1344 24.4027Z" fill="#005EB8"/>
    </g>
    <defs>
        <clipPath id="clip0">
            <rect width="160" height="58.6667" fill="white"/>
        </clipPath>
    </defs>
</svg>
