<?xml version="1.0" encoding="iso-8859-1"?>
<!-- Generator: Adobe Illustrator 19.0.0, SVG Export Plug-In . SVG Version: 6.00 Build 0)  -->
<svg version="1.1" id="Layer_1" xmlns="http://www.w3.org/2000/svg" xmlns:xlink="http://www.w3.org/1999/xlink" x="0px" y="0px"
	 viewBox="0 0 442.013 442.013" style="enable-background:new 0 0 442.013 442.013;" xml:space="preserve">
<g>
	<g>
		<g>
			<path d="M161.586,39.608c-67.287,0-122.027,54.736-122.027,122.02c0,32.597,12.691,63.242,35.734,86.289
				c23.047,23.047,53.692,35.741,86.292,35.741c32.587,0,63.229-12.691,86.279-35.741c23.054-23.054,35.748-53.695,35.748-86.286
				C283.613,94.348,228.873,39.608,161.586,39.608z M237.007,237.053c-20.149,20.146-46.933,31.246-75.421,31.246
				c-28.498,0-55.289-11.1-75.431-31.239c-20.142-20.146-31.235-46.93-31.235-75.428c0-58.812,47.855-106.66,106.667-106.66
				c58.815,0,106.667,47.848,106.667,106.663C268.253,190.119,257.159,216.907,237.007,237.053z"/>
			<path d="M427.747,359.09l-96.208-96.208l-15.858,15.858l-22.835-22.828c46.008-63.877,39.209-152.378-16.975-208.568
				C245.342,16.814,204.751,0,161.579,0c-0.003,0,0.003,0-0.003,0c-43.165,0-83.76,16.814-114.278,47.34
				c-63.02,63.024-63.02,165.564,0,228.577c56.18,56.194,144.681,62.993,208.562,16.981l22.839,22.828l-15.865,15.872L359.04,427.8
				c9.472,9.472,21.91,14.213,34.352,14.213c12.438-0.007,24.887-4.741,34.355-14.213c9.175-9.172,14.23-21.371,14.234-34.352
				C441.981,380.471,436.926,368.265,427.747,359.09z M416.893,416.939c-12.961,12.954-34.041,12.954-46.995,0l-85.347-85.34
				l23.491-23.504l-10.861-10.861l-7.629,7.632L257.176,272.5l-5.352,4.212c-58.098,45.667-141.356,40.66-193.666-11.653
				c-57.03-57.027-57.03-149.825,0-206.858C85.783,30.573,122.513,15.36,161.582,15.36s75.803,15.217,103.427,42.844
				c52.313,52.316,57.32,135.578,11.65,193.676l-4.209,5.352l43.237,43.23l15.858-15.858l85.347,85.34
				c6.274,6.281,9.735,14.619,9.735,23.501C426.624,402.319,423.167,410.665,416.893,416.939z"/>
			<path d="M391.624,395.22l-21.668-21.675l-10.865,10.861l21.675,21.682c4.553,4.547,9.865,5.226,12.626,5.226
				c2.765,0,8.079-0.679,12.64-5.24l-10.861-10.861C394.194,396.192,392.59,396.186,391.624,395.22z"/>
			<path d="M100.668,100.717c-16.295,16.299-25.269,37.932-25.269,60.921h15.36c0-18.886,7.376-36.663,20.774-50.057
				c13.394-13.394,31.164-20.77,50.046-20.77h0.007v-15.36c0,0-0.003,0-0.007,0C138.59,75.452,116.96,84.425,100.668,100.717z"/>
		</g>
	</g>
</g>
<g>
</g>
<g>
</g>
<g>
</g>
<g>
</g>
<g>
</g>
<g>
</g>
<g>
</g>
<g>
</g>
<g>
</g>
<g>
</g>
<g>
</g>
<g>
</g>
<g>
</g>
<g>
</g>
<g>
</g>
</svg>
